<?xml version="1.0" encoding="UTF-8"?>
<svg version="1.1" xmlns="http://www.w3.org/2000/svg" width="390" height="256">
<path d="M0 0 C128.7 0 257.4 0 390 0 C390 84.48 390 168.96 390 256 C261.3 256 132.6 256 0 256 C0 171.52 0 87.04 0 0 Z " fill="#7375BE" transform="translate(0,0)"/>
<path d="M0 0 C8.94050258 4.21485248 17.92176912 7.93790711 27.29077148 11.08349609 C28.98096608 11.65278397 30.66074392 12.2527996 32.33862305 12.85742188 C50.85312793 19.15235354 70.78842271 21.4249435 90.20581055 22.72851562 C90.20581055 23.05851562 90.20581055 23.38851562 90.20581055 23.72851562 C9.35581055 23.72851562 -71.49418945 23.72851562 -154.79418945 23.72851562 C-154.79418945 8.87851563 -154.79418945 -5.97148437 -154.79418945 -21.27148438 C-100.17763553 -30.37424336 -50.08381697 -23.73158592 0 0 Z " fill="#FEFEFE" transform="translate(154.794189453125,232.271484375)"/>
<path d="M0 0 C13.86 0 27.72 0 42 0 C42 48.84 42 97.68 42 148 C39.72051461 144.58077191 38.79107416 141.23935301 37.71606445 137.33056641 C37.38560544 136.15407186 37.38560544 136.15407186 37.0484705 134.95380974 C36.31501613 132.33778003 35.58919539 129.71969363 34.86328125 127.1015625 C34.34640685 125.25275191 33.82903257 123.40408101 33.31118774 121.55554199 C31.92518835 116.60319156 30.54555539 111.6490886 29.16715622 106.69461823 C27.74794546 101.59732282 26.32327743 96.50155426 24.89868164 91.40576172 C24.32981227 89.37075986 23.76094935 87.3357562 23.1920929 85.30075073 C22.77108024 83.7946908 22.77108024 83.7946908 22.34156227 82.25820541 C21.49210207 79.21844429 20.64339231 76.17847448 19.79484558 73.13845825 C16.56009128 61.55312307 13.30364331 49.97435791 10.0078125 38.40625 C9.64872299 37.14477142 9.28963348 35.88329285 8.91966248 34.58358765 C7.61075765 29.98807745 6.3010143 25.39282636 4.98403931 20.79962158 C4.12025831 17.78659227 3.26090119 14.77233351 2.40234375 11.7578125 C2.15360504 10.89651733 1.90486633 10.03522217 1.64859009 9.14782715 C0.75863146 6.0128777 0 3.27622327 0 0 Z " fill="#FEFEFE" transform="translate(348,0)"/>
<path d="M0 0 C0 19.14 0 38.28 0 58 C-43.23 58 -86.46 58 -131 58 C-131 57.67 -131 57.34 -131 57 C-129.75089844 56.91363281 -128.50179688 56.82726562 -127.21484375 56.73828125 C-85.02095667 53.47808685 -43.77421222 37.50348331 -11.75 9.375 C-9 7 -9 7 -7 7 C-7 6.34 -7 5.68 -7 5 C-1.4047619 0 -1.4047619 0 0 0 Z " fill="#FDFDFE" transform="translate(390,198)"/>
</svg>
