<?xml version="1.0" encoding="UTF-8"?>
<svg version="1.1" xmlns="http://www.w3.org/2000/svg" width="390" height="256">
<path d="M0 0 C128.7 0 257.4 0 390 0 C390 84.48 390 168.96 390 256 C261.3 256 132.6 256 0 256 C0 171.52 0 87.04 0 0 Z " fill="#001269" transform="translate(0,0)"/>
<path d="M0 0 C1.25296875 0.36738281 2.5059375 0.73476562 3.796875 1.11328125 C16.26250536 5.00544695 27.9981453 10.67223961 39.7734375 16.265625 C53.46526887 22.69704051 67.54589216 27.56405965 82 32 C82.78358887 32.24121582 83.56717773 32.48243164 84.37451172 32.73095703 C96.63541399 36.40312198 109.3181246 37.62125904 122 39 C122 39.33 122 39.66 122 40 C27.29 40 -67.42 40 -165 40 C-165 30.43 -165 20.86 -165 11 C-113.45572069 -11.84952588 -54.11670218 -16.31421829 0 0 Z " fill="#FEFEFE" transform="translate(165,216)"/>
<path d="M0 0 C0 7.26 0 14.52 0 22 C-24.42 22 -48.84 22 -74 22 C-74 21.67 -74 21.34 -74 21 C-73.31188232 20.90501221 -72.62376465 20.81002441 -71.91479492 20.7121582 C-47.07133086 17.22923642 -25.59191635 11.47302106 -2.90625 0.84765625 C-1 0 -1 0 0 0 Z " fill="#F9F9FC" transform="translate(390,234)"/>
</svg>
